# xmcd CD database file
#
# Track frame offsets:
#        150
#        26017
#        44952
#        67050
#        93055
#        114795
#        133315
#        157267
#        172672
#        194882
#        209597
#        234295
#        251530
#
# Disc length: 3690 seconds
#
# Revision: 0
# Processed by: cddbd v1.5.2PL0 Copyright (c) Steve Scherf et al.
# Submitted via: CUERipper 2.1.2
#
DISCID=be0e680d
DTITLE=Neil Murray - Dust
DYEAR=1900
DGENRE=
TTITLE0=Spirit
TTITLE1=Bulukbara Man
TTITLE2=Give This Day
TTITLE3=Tjapwurrung Country
TTITLE4=This Bliss
TTITLE5=Coolamon Moon
TTITLE6=Melbourne Town
TTITLE7=Menindee
TTITLE8=Fire of Love
TTITLE9=Peace of Mind
TTITLE10=This Good Earth
TTITLE11=In My Heart
TTITLE12=Native Born
EXTD=
EXTT0=
EXTT1=
EXTT2=
EXTT3=
EXTT4=
EXTT5=
EXTT6=
EXTT7=
EXTT8=
EXTT9=
EXTT10=
EXTT11=
EXTT12=
PLAYORDER=
